<?xml version="1.0" encoding="UTF-8"?>
<svg id="Layer_2" data-name="Layer 2" xmlns="http://www.w3.org/2000/svg" viewBox="0 0 282.09 55.7">
  <defs>
    <style>
      .cls-1 {
        fill: #fff;
      }
    </style>
  </defs>
  <g id="Layer_1-2" data-name="Layer 1">
    <g>
      <path d="M90.48,14.67c-1.01,5.55-2.95,11.2-9.07,12.65-3.81.9-7.34-.64-9.99,3.45-2.29,3.54-1.7,5.95-6.07,8.57s-13.67,2.37-18.68,1.98c-7.9-.62-4.13-9.69,1.16-12.05,3.17-1.41,5.81-.45,8.86-1.22,5.16-1.31,4.56-6.32,7.63-9.65,1.17-1.27,4.93-3.71,6.61-3.71h19.56Z"/>
      <path d="M0,41.31c.92-4.58,1.91-9.37,6.4-11.72s10.31.53,13.08-5.4c1.83-3.92,2.34-6.52,6.75-8.61,3.37-1.6,13.61-1.52,17.57-1.17,5.91.52,3.25,7.85.24,10.57-3.43,3.11-5.58,2.16-9.54,2.7-5.25.71-5.09,5.23-7.42,8.42-1.67,2.28-6.09,5.2-8.96,5.2H0Z"/>
      <path d="M254.89,21.08l-4.87,22.37c-1.75,5.35-6.24,7.82-11.6,8.56-6,.82-17.48.06-16.89-8.37h7.44c.11,0,.53,1.17,1.36,1.64,2.17,1.26,7.88.96,10.16-.09,3.28-1.5,3.62-5.35,4.08-8.52l-2.52,3.35c-5.35,3.92-17.04,3.62-17.87-4.68-.73-7.35,3.45-13.18,10.75-14.45,3.98-.69,9.39-.57,12.65,2.08l.96-1.92h6.36ZM237.8,26.43c-2.31.22-4.57,1.04-5.75,3.13-4.57,8.13,10.03,8.99,12.65,3.53s-2.48-7.08-6.9-6.66Z"/>
      <path d="M47.52,26.9c.61-1.75,1.71-3,2.22-4.86,1.18-4.25-.36-8.43-4.97-9.31l-22.45-.23c1.25-5.69,3.65-11.48,10.22-12.21,3.74-.41,15.87-.45,19.3.33,10.53,2.39,14.18,16.35,5.75,23.29-2.84,2.34-6.45,3.18-10.08,3Z"/>
      <path d="M68.4,43.23c-1.64,5.44-3.32,10.24-9.41,11.83-3.33.87-14.06.7-17.84.42-16.94-1.25-17.59-25.83,0-26.66.3-.01,2.3-.21,2.05.37-3.77,3.45-4.97,11,.56,13.37.38.16,1.92.67,2.21.67h22.44Z"/>
      <path d="M94.33,44.12l6.83-29.3c6.41.41,13.36-.49,19.7,0,9.91.77,10.12,12.18,3.6,17.53-5.78,4.74-14.06,3-20.97,3.39l-1.71,8.37h-7.44ZM104.89,29h11.16c.25,0,2.07-.53,2.44-.68,3.29-1.27,4.68-5.54.81-6.65-3.55-1.02-8.63.05-12.38-.37l-.32.05-1.71,7.65Z"/>
      <path d="M143.77,27.32c4.42-6.05,11.57-7.81,18.72-6.12,6.51,1.54,9.46,7.36,7.08,13.56h-20.76c.34,4.71,8.09,4.83,11.17,3.13.44-.24,1.34-1.21,1.43-1.21h7.8c-3.1,6.73-9.99,8.48-16.92,7.92-7.88-.64-12.42-6.83-9.73-14.52.34-.96.87-1.75,1.2-2.76-4.26,0-7.7.85-9,5.28-1.08,3.67-1.53,7.8-2.52,11.52h-6.72l5.04-23.04h6.72l-.84,5.28c1.64-3.21,5.01-5.82,8.76-5.52-.41,2.1-.77,4.46-1.44,6.48ZM163.45,29.96c-.48-3.21-4.68-3.75-7.33-3.61-2.44.12-5.25,1.1-6.11,3.61h13.44Z"/>
      <path d="M281.53,34.76h-21.12c.21,4.94,9.23,4.91,12,2.75.44-.34.43-.83.48-.83h7.92c-2.74,6.87-10.18,8.47-16.92,7.92-14.88-1.21-12.59-19.75-.36-23.15,9.82-2.74,21.22,1.23,18,13.32ZM275.05,29.96c-.31-3.18-4.76-3.74-7.33-3.61-2.33.12-5.32,1.09-5.87,3.61h13.2Z"/>
      <path d="M198.97,29h-7.8c-.55-.57-.3-1.35-.95-1.93-1.22-1.09-9.04-1.04-10.33,0-2.66,2.14,1.45,3.02,3.12,3.14,4.04.28,14-1.05,14.54,4.9.59,6.57-5.3,9.12-10.92,9.5-6.3.42-16,.09-16.93-7.93h8.4c.76,3.37,7.44,2.88,9.97,2.17,1.26-.35,2.47-1.39,1.45-2.67-1.16-1.46-6.96-.8-8.91-.93-5.01-.33-10.06-1.98-8.59-8.13,1.07-4.44,6.51-6.03,10.51-6.29,6.07-.41,16.89-.36,16.45,8.17Z"/>
      <path d="M211.69,14.36c.27.25-1.44,5.55-1.42,6.38,0,.24.01.3.22.46.18.17.3-.13.36-.13h5.28c.24.18.27.21.27.49-.01,1.55-1.23,3.81-1.11,5.51l-6.36.24-2.02,9.04c-.21.44.86,1.77,1.06,1.77h4.92l-.97,5.99c-3.34-.22-10.92,1.26-12.06-3.15-1.01-3.9,1.73-9.84,2-13.87l-2.4-.12,1.32-5.64,2.5-.26,1.46-6.7h6.96Z"/>
      <polygon points="225.13 21.32 220.09 44.12 213.13 44.12 218.17 21.32 225.13 21.32"/>
      <polygon points="226.57 14.6 225.37 20.12 218.41 20.12 219.61 14.6 226.57 14.6"/>
      <path class="cls-1" d="M237.8,26.43c4.42-.42,9.46,1.31,6.9,6.66s-17.22,4.6-12.65-3.53c1.18-2.09,3.44-2.91,5.75-3.13Z"/>
      <path class="cls-1" d="M104.89,29l1.71-7.65.32-.05c3.75.41,8.83-.65,12.38.37,3.88,1.11,2.48,5.39-.81,6.65-.37.14-2.19.68-2.44.68h-11.16Z"/>
      <path class="cls-1" d="M163.45,29.96h-13.44c.86-2.51,3.67-3.49,6.11-3.61,2.65-.14,6.85.4,7.33,3.61Z"/>
      <path class="cls-1" d="M275.05,29.96h-13.2c.55-2.52,3.54-3.49,5.87-3.61,2.57-.13,7.02.44,7.33,3.61Z"/>
    </g>
  </g>
</svg>