<svg xmlns="http://www.w3.org/2000/svg" viewBox="0 0 100 50">
  <path fill="#3B82F6" d="M22 4c-11 0-18 7-18 16s7 14 16 14c5 0 9-2 12-5l2-2 2 2c3 3 7 5 12 5 9 0 16-6 16-14 0-3-1-5-2-7-2-3-5-5-8-6h-1c-2-1-3-1-5-1-5 0-9 2-12 5l-2 2-2-2c-3-3-7-5-12-5zm0 8c4 0 7 2 9 5l1 2-1 2c-2 3-5 5-9 5-5 0-9-3-9-8s4-6 9-6zm26 0c5 0 9 2 9 6 0 5-4 8-9 8-4 0-7-2-9-5l-1-2 1-2c2-3 5-5 9-5z"/>
  <path fill="#3B82F6" d="M52 21c-9 0-16 6-16 14 0 3 1 5 2 7 2 3 5 5 8 6h1c2 1 3 1 5 1 5 0 9-2 12-5l2-2 2 2c3 3 7 5 12 5 11 0 18-7 18-16S89 18 80 18c-5 0-9 2-12 5l-2 2-2-2c-3-3-7-5-12-5zm0 8c4 0 7 2 9 5l1 2-1 2c-2 3-5 5-9 5-5 0-9-3-9-8 0-4 4-6 9-6zm26 0c5 0 9 2 9 6 0 5-4 8-9 8-4 0-7-2-9-5l-1-2 1-2c2-3 5-5 9-5z"/>
</svg>
